<svg width="60" height="53" viewBox="0 0 60 53" fill="none" xmlns="http://www.w3.org/2000/svg">
<path fill-rule="evenodd" clip-rule="evenodd" d="M7.05286 49.1389L2.34285 44.4289C1.95232 44.0384 1.31916 44.0384 0.928635 44.4289C0.538111 44.8195 0.538111 45.4526 0.928635 45.8431L7.2926 52.2071C7.68312 52.5976 8.31629 52.5976 8.70681 52.2071L15.0708 45.8431C15.4613 45.4526 15.4613 44.8195 15.0708 44.4289C14.6802 44.0384 14.0471 44.0384 13.6566 44.4289L9.0605 49.025C10.3501 22.8367 31.9915 2 58.4997 2C59.052 2 59.4997 1.55228 59.4997 1C59.4997 0.447715 59.052 0 58.4997 0C30.8484 0 8.28684 21.7922 7.05286 49.1389Z" fill="#FF638A"/>
</svg>
