<svg width="59" height="53" viewBox="0 0 59 53" fill="none" xmlns="http://www.w3.org/2000/svg">
<path fill-rule="evenodd" clip-rule="evenodd" d="M58.5714 45.8431L52.2074 52.2071C51.8169 52.5976 51.1837 52.5976 50.7932 52.2071L44.4292 45.8431C44.0387 45.4526 44.0387 44.8195 44.4292 44.4289C44.8198 44.0384 45.4529 44.0384 45.8434 44.4289L50.4395 49.025C49.1499 22.8367 27.5085 2 1.0003 2C0.448013 2 0.000297479 1.55228 0.000297503 0.999997C0.000297527 0.447713 0.448013 -2.55346e-06 1.0003 -2.52931e-06C28.6516 -1.32064e-06 51.2132 21.7922 52.4471 49.1389L57.1571 44.4289C57.5477 44.0384 58.1808 44.0384 58.5714 44.4289C58.9619 44.8195 58.9619 45.4526 58.5714 45.8431Z" fill="#FF638A"/>
</svg>
